<?xml version="1.0" standalone="no"?>
<svg viewBox="0 0 200 200" xmlns="http://www.w3.org/2000/svg">
  <path fill="#717270" d="M22.1,-46.2C24.8,-36.7,20.5,-23,27.6,-14.6C34.7,-6.2,53.2,-3.1,60,3.9C66.8,10.9,61.8,21.9,54.6,30.2C47.5,38.5,38.1,44.2,28.7,50.7C19.2,57.3,9.6,64.7,-3.4,70.6C-16.5,76.6,-32.9,81,-42.8,74.7C-52.6,68.4,-55.9,51.2,-62.2,37C-68.5,22.7,-77.9,11.4,-81.7,-2.2C-85.5,-15.8,-83.8,-31.6,-74.1,-40C-64.5,-48.4,-46.8,-49.5,-33.1,-52.6C-19.5,-55.7,-9.7,-60.9,0,-60.9C9.7,-60.9,19.4,-55.7,22.1,-46.2Z" transform="translate(100 100)" />
</svg>
